<svg width="538" height="125" viewBox="0 0 538 125" fill="none" xmlns="http://www.w3.org/2000/svg" role="img" aria-label="monkway">
  <title>monkway</title>
  <g transform="translate(8,8) scale(0.120000,-0.120000) translate(-62.10,-700.00)" fill="#F4F1FB">
    <g transform="translate(0.00,0)"><path d="M62.1002197265625 0V500H167.119384765625L171.83935546875 432.72991943359375Q195.26934814453125 471.5799560546875 231.12435913085938 491.78997802734375Q266.9793701171875 512 312.96942138671875 512Q373.2593994140625 512 414.96942138671875 485.219970703125Q456.679443359375 458.43994140625 475.679443359375 402.8798828125Q497.96942138671875 455.86993408203125 538.0394287109375 483.9349670410156Q578.1094360351562 512 632.239501953125 512Q718.5394287109375 512 765.6744689941406 456.42999267578125Q812.8095092773438 400.8599853515625 812.239501953125 286V0H700.640380859375V256Q700.640380859375 315.7803955078125 687.8703002929688 348.2455749511719Q675.1002197265625 380.71075439453125 653.1950988769531 393.8457946777344Q631.2899780273438 406.9808349609375 602.0298461914062 407.41082763671875Q549.7796630859375 408.27081298828125 521.3745422363281 370.1755676269531Q492.96942138671875 332.080322265625 492.96942138671875 260.86993408203125V0H381.37030029296875V256Q381.37030029296875 315.7803955078125 368.6002197265625 348.2455749511719Q355.83013916015625 380.71075439453125 333.9250183105469 393.8457946777344Q312.0198974609375 406.9808349609375 282.759765625 407.41082763671875Q230.50958251953125 408.27081298828125 202.10446166992188 370.1755676269531Q173.6993408203125 332.080322265625 173.6993408203125 260.86993408203125V0Z"/></g>
    <g transform="translate(864.00,0)"><path d="M291.9312111322134 -12Q216.51237366097104 -12 158.3770197768884 21.5Q100.24166589280578 55 67.24592449913726 114.0Q34.25018310546875 173 34.25018310546875 250Q34.25018310546875 327 66.71739464788861 386.0Q99.18460619030847 445 157.31138814528597 478.5Q215.43817010026348 512 289.7985578264509 512Q365.2062749572325 512 423.33305691221 478.5Q481.4598388671875 445 513.9648132324219 386.0Q546.4697875976562 327 546.4697875976562 250Q546.4697875976562 173 513.9977881308714 114.0Q481.52578866408646 55 423.9141767068875 21.5Q366.3025647496885 -12 291.9312111322134 -12ZM291.8599853515625 90.72918701171875Q333.4254430551998 90.72918701171875 364.9844016820355 111.1189287710881Q396.54336030887123 131.50867053045744 414.6320317169356 167.28689663652062Q432.720703125 203.06512274258378 432.720703125 250Q432.720703125 296.9348772574162 414.5902141746617 332.7131033634794Q396.45972522432334 368.49132946954256 364.0562981641442 388.8810712289119Q331.6528711039651 409.27081298828125 289.99132202659194 409.27081298828125Q248.32977294921875 409.27081298828125 216.30118854229266 388.8933952673158Q184.27260413536658 368.5159775463503 166.1359358567458 332.7593766397505Q147.999267578125 297.00277573315066 147.999267578125 250.09626701696595Q147.999267578125 203.18975830078125 166.40936279296875 167.4395751953125Q184.8194580078125 131.68939208984375 217.39700980808425 111.20928955078125Q249.97456160835597 90.72918701171875 291.8599853515625 90.72918701171875Z"/></g>
    <g transform="translate(1445.00,0)"><path d="M62.1002197265625 0V500H167.119384765625L171.83935546875 429.30987548828125Q196.40936279296875 469.43994140625 234.82940673828125 490.719970703125Q273.24945068359375 512 323.22955322265625 512Q382.51953125 512 425.0845642089844 488.07000732421875Q467.64959716796875 464.1400146484375 490.56964111328125 413.57000732421875Q513.4896850585938 363 512.919677734375 282.00994873046875V0H401.320556640625V256Q401.320556640625 315.7803955078125 387.41046142578125 348.2455749511719Q373.5003662109375 380.71075439453125 349.03021240234375 393.8457946777344Q324.56005859375 406.9808349609375 292.44989013671875 407.41082763671875Q235.6396484375 408.27081298828125 204.66949462890625 370.1755676269531Q173.6993408203125 332.080322265625 173.6993408203125 260.86993408203125V0Z"/></g>
    <g transform="translate(2009.00,0)"><path d="M62.1002197265625 0V700H173.6993408203125V297.98931884765625L361.13006591796875 500H495.88909912109375L308.30914306640625 293.25018310546875L512.7291870117188 0H379.83013916015625L236.34967041015625 212.8408203125L173.6993408203125 145.19049072265625V0Z"/></g>
    <g transform="translate(2526.00,0)"><path d="M180 0 10 500H123.319091796875L237.6595458984375 151.92889404296875L353 500H463.30914306640625L576.7896118164062 156.50885009765625L691.8500366210938 500H805.1691284179688L634.7391357421875 0H524.2899780273438L407.9395751953125 358.680908203125L291.0191650390625 0Z" fill="#C96F5A"/></g>
    <g transform="translate(3341.00,0)"><path d="M222.68311291963377 -12Q133.2497456765005 -12 83.74974567650051 28.141658189216685Q34.24974567650051 68.28331637843337 34.24974567650051 141Q34.24974567650051 219.30010172939978 86.61648016276705 259.94175991861647Q138.98321464903358 300.58341810783315 233.43336724313326 300.58341810783315H359.9328585961343Q353.7828077314344 356.21617497456765 328.6663275686674 385.1075788402849Q303.5498474059003 413.99898270600204 254.90030518819938 413.99898270600204Q219.2171922685656 413.99898270600204 191.94226856561545 398.86571719226856Q164.66734486266532 383.7324516785351 146.10071210579858 352.18260427263476L47.66632756866734 387.6495422177009Q63.64954221770091 420.7828077314344 90.50788402848423 449.1579348931841Q117.36622583926754 477.53306205493385 157.8914038657172 494.76653102746695Q198.41658189216685 512 254.90030518819938 512Q328.3504577822991 512 377.0089013224822 483.56663275686674Q425.6673448626653 455.1332655137335 449.45905391658187 402.2082909460834Q473.2507629704985 349.28331637843337 472.53407934893187 274.4501525940997L470.3840284842319 0H366.6495422177009L363.7995930824008 61.3997965412004Q343.6663275686673 25.98321464903357 308.17472024415054 6.991607324516785Q272.6831129196338 -12 222.68311291963377 -12ZM237.31688708036623 82.41759918616481Q273.8499491353001 82.41759918616481 302.2581383519837 98.69252288911495Q330.6663275686673 114.9674465920651 346.51627670396743 142.93387589013224Q362.36622583926754 170.90030518819938 362.36622583926754 205.3997965412004V214.76602238046794H268.6673448626653Q201.68413021363173 214.76602238046794 174.84257375381486 196.1495422177009Q148.00101729399796 177.53306205493388 148.00101729399796 143.86673448626652Q148.00101729399796 115.06714140386572 171.54247202441505 98.74237029501526Q195.08392675483213 82.41759918616481 237.31688708036623 82.41759918616481Z" fill="#C96F5A"/></g>
    <g transform="translate(3865.00,0)"><path d="M140.70928955078125 -212Q116.5394287109375 -212 87.22955322265625 -202.77505493164062Q57.919677734375 -193.55010986328125 31.4996337890625 -180.2601318359375L72.84930419921875 -88.8408203125Q92.3994140625 -98.41082763671875 108.03445434570312 -103.62582397460938Q123.66949462890625 -108.8408203125 134.0994873046875 -108.8408203125Q157.50958251953125 -108.8408203125 174.28961181640625 -96.28076171875Q191.06964111328125 -83.720703125 201.34967041015625 -59.59063720703125L227.58990478515625 4.2999267578125L6.27008056640625 500H127.60906982421875L280.08953857421875 131.76898193359375L428.840087890625 500H550.7490844726562L318.64886474609375 -53.3404541015625Q298.4989013671875 -101.3603515625 276.6339416503906 -137.09524536132812Q254.76898193359375 -172.83013916015625 222.96905517578125 -192.41506958007812Q191.16912841796875 -212 140.70928955078125 -212Z" fill="#C96F5A"/></g>
  </g>
</svg>
